<?xml version="1.0" encoding="utf-8"?>
<svg version="1.1" id="Layer_1" xmlns="http://www.w3.org/2000/svg" xmlns:xlink="http://www.w3.org/1999/xlink" x="0px" y="0px"
	 viewBox="0 0 345.8 402.5" style="enable-background:new 0 0 345.8 402.5;" xml:space="preserve">
<style type="text/css">
	.st0{fill:#25282B;}
</style>
<g>
	<path class="st0" d="M270.8,175c-26-32.3,5-60,37.2-64.1c-32-5.7-39.1-2.3-58.9,13.6c-4.8-11.2,52.9-98.5,52.9-98.5
		s-82.9,84.7-101.9,82.9c-24-2.3-26.9-71.6-27.2-88.1c-0.3,16.4-3.2,85.8-27.2,88.1C126.7,110.8,43.8,26,43.8,26
		s57.8,87.2,52.9,98.5c-19.8-15.9-26.9-19.3-58.9-13.6C70.1,115,101,142.7,75,175c61.7-8,6.8,52.3-13.6,63
		c80.2-6.9,81.4,48.8,77.5,71.6c28.5-1,34,29.7,34,29.7s5.6-30.7,34-29.7c-3.9-22.8-2.7-78.5,77.5-71.6
		C264,227.3,209.1,167,270.8,175z M164.9,115.5c0-3.7,3-6.7,6.7-6.7c0,0,0,0,0,0c3.7,0,6.7,3,6.7,6.7v22.7c0,0-1.7-4-7-4
		c-4.6,0-6.4,4-6.4,4V115.5z M164.9,154.7c0-3.7,3-6.7,6.7-6.7c0,0,0,0,0,0c3.7,0,6.7,3,6.7,6.7v26.5c0,2.1-1.3,2.5-2.3,2.5
		c-1,0-1.2-0.1-4.1-3.3c-2.9-3.2-7-8.1-7-8.1V154.7z M166.1,196.4c1.5-0.6,2.4,0.5,3.6,2c1.2,1.4,1.6,1.8,1.6,1.8
		c2.9,3.2,7,8.1,7,8.1v12.1c0,3.7-3,6.7-6.7,6.7c-3.7,0-6.7-3-6.7-6.7v-21.1C164.9,198.3,164.6,197,166.1,196.4z M138,123.4
		c0-3.7,3-6.7,6.7-6.7s6.7,3,6.7,6.7v55.8c0,3.7-3,6.7-6.7,6.7s-6.7-3-6.7-6.7V123.4z M125.6,232.9c0,3.7-3,6.7-6.6,6.7h-0.2
		c-3.7,0-6.6-3-6.6-6.7v-94.8c0-3.7,3-6.7,6.6-6.7h0.2c3.7,0,6.6,3,6.6,6.7V232.9z M138,246.7v-41c0-3.7,3-6.7,6.8-6.7
		c3.7,0,6.8,3,6.8,6.7v41c0,3.7-3,6.7-6.8,6.7C141,253.3,138,250.4,138,246.7z M162.2,302.3c-2.7,1.9-7.5-0.5-10.7-5.2
		c-3.2-4.7-3.6-10.1-0.8-11.9c2.7-1.9,7.5,0.5,10.7,5.2C164.6,295.1,164.9,300.4,162.2,302.3z M178.4,261c0,3.7-3,6.7-6.8,6.7
		c-3.7,0-6.8-3-6.8-6.7v-23.1c0,0,2,4,6.8,4c5.1,0,6.8-4,6.8-4V261z M194.4,297.1c-3.2,4.7-8,7-10.7,5.2c-2.7-1.9-2.4-7.2,0.8-11.9
		c3.2-4.7,8-7,10.7-5.2C197.9,287,197.6,292.4,194.4,297.1z M206,246.7c0,3.7-2.9,6.7-6.5,6.7H199c-3.6,0-6.5-3-6.5-6.7v-60.9
		c0-3.7,2.9-6.7,6.5-6.7h0.5c3.6,0,6.5,3,6.5,6.7V246.7z M206,158.9c0,3.8-3,6.9-6.8,6.9c-3.8,0-6.8-3.1-6.8-6.9v-35.3
		c0-3.8,3-6.9,6.8-6.9c3.8,0,6.8,3.1,6.8,6.9V158.9z M233.7,138.1l0,94.8c0,3.7-3,6.7-6.6,6.7h-0.2c-3.7,0-6.6-3-6.6-6.7v-94.8
		c0-3.7,3-6.7,6.6-6.7h0.2C230.7,131.4,233.7,134.4,233.7,138.1L233.7,138.1z"/>
	<g>
		<path class="st0" d="M188.7,55.2c0.4,3.1,0.9,6.3,1.4,9.4c0.1,0.6,0.2,1.2,0.3,1.8c12.6,2.1,24.6,6.3,35.4,12.2
			c2.7-2.2,5.6-4.6,8.9-7.4C220.8,63.1,205.3,57.5,188.7,55.2z M287.1,132.2c-3.5,2.3-6.4,4.9-8.6,7.7c4.4,12.1,6.8,25.1,6.8,38.6
			c0,13.5-2.4,26.5-6.7,38.5c3.3,3,6.4,5.4,8.9,7.2c5.6-14.2,8.7-29.6,8.7-45.7C296,162.2,292.9,146.5,287.1,132.2z M125.5,282.4
			c-16.1-7.2-30.2-17.9-41.3-31.3c-3.1-0.3-6.3-0.4-9.7-0.4c-1.4,0-2.8,0-4.2,0.1c14.1,19.7,33.7,35.1,56.6,43.9
			C126.8,290.9,126.4,286.7,125.5,282.4z M56.6,130.9c-6.1,14.7-9.5,30.8-9.5,47.7c0,16.7,3.3,32.6,9.3,47.1
			c2.3-1.4,5.5-3.7,8.9-6.8c-4.8-12.5-7.4-26.1-7.4-40.3c0-14.4,2.7-28.1,7.6-40.8C63.1,135.2,60.1,132.9,56.6,130.9z M271.4,250.7
			c-4.5,0-8.7,0.2-12.7,0.8c-10.4,12.4-23.3,22.5-38,29.6c-1.1,4.3-1.6,8.7-1.7,12.6c21.7-9,40.4-24,53.9-42.9
			C272.4,250.7,271.9,250.7,271.4,250.7z M110.1,70.4c3.2,2.8,6.2,5.3,8.9,7.5c11.2-5.9,23.5-10,36.6-11.8c0.1-0.4,0.2-0.9,0.2-1.3
			c0.6-3.3,1.1-6.6,1.5-9.8C140.2,56.8,124.3,62.2,110.1,70.4z"/>
	</g>
	<g>
		<path class="st0" d="M50.8,373.8c-6.1,0-10.8-3-11-8.7h7.3c0.2,2.2,1.6,3.2,3.5,3.2c2,0,3.3-1,3.3-2.7c0-5.2-14.1-2.4-14-12.4
			c0-5.3,4.4-8.3,10.3-8.3c6.1,0,10.3,3.1,10.6,8.4h-7.4c-0.1-1.8-1.4-2.9-3.3-2.9c-1.6,0-2.9,0.8-2.9,2.6c0,4.9,13.9,2.7,13.9,12.1
			C61.1,369.8,57.4,373.8,50.8,373.8z"/>
		<path class="st0" d="M64.7,345c0-2.1,1.6-3.7,4.1-3.7c2.4,0,4.1,1.6,4.1,3.7c0,2-1.6,3.7-4.1,3.7C66.3,348.7,64.7,347.1,64.7,345z
			 M65.3,351.1h6.9v22.4h-6.9V351.1z"/>
		<path class="st0" d="M77.2,343.8h6.9v29.7h-6.9V343.8z"/>
		<path class="st0" d="M99,373.8c-6.6,0-11.3-4.4-11.3-11.5c0-7.1,4.7-11.5,11.3-11.5c6.5,0,11.2,4.3,11.2,11.2c0,0.6,0,1.3-0.1,2
			H94.5c0.2,2.9,2,4.3,4.3,4.3c1.9,0,3-1,3.6-2.2h7.3C108.6,370.4,104.6,373.8,99,373.8z M94.5,360.1h8.6c0-2.5-1.9-3.9-4.2-3.9
			C96.7,356.2,94.9,357.6,94.5,360.1z"/>
		<path class="st0" d="M129.3,361.3c0-3.1-1.7-4.7-4.3-4.7c-2.6,0-4.3,1.7-4.3,4.7v12.2h-6.9v-22.4h6.9v3c1.4-1.9,3.8-3.2,6.8-3.2
			c5.2,0,8.6,3.5,8.6,9.6v13.1h-6.8V361.3z"/>
		<path class="st0" d="M141.9,356.8h-2.7v-5.7h2.7v-5.5h6.9v5.5h4.5v5.7h-4.5v9c0,1.3,0.6,1.9,2.1,1.9h2.5v5.8h-3.5
			c-4.7,0-7.9-2-7.9-7.8V356.8z"/>
		<path class="st0" d="M182.5,359.4c0,8.4-5.8,14.1-14.8,14.1h-10.6v-28.2h10.6C176.7,345.3,182.5,351,182.5,359.4z M167.3,367.5
			c5.2,0,8.2-3,8.2-8.2c0-5.2-3.1-8.2-8.2-8.2H164v16.4H167.3z"/>
		<path class="st0" d="M193.2,373.5h-6.9v-22.4h6.9v3.7c1.6-2.4,4-4,7-4v7.3h-1.9c-3.3,0-5.1,1.1-5.1,5V373.5z"/>
		<path class="st0" d="M212.1,350.7c3.3,0,5.7,1.5,6.9,3.5v-3.2h6.9v22.4H219v-3.2c-1.2,2-3.6,3.5-6.9,3.5c-5.5,0-9.8-4.5-9.8-11.6
			C202.2,355.2,206.6,350.7,212.1,350.7z M214.1,356.7c-2.6,0-4.9,1.9-4.9,5.5c0,3.6,2.3,5.6,4.9,5.6c2.6,0,4.9-2,4.9-5.5
			C219,358.7,216.7,356.7,214.1,356.7z"/>
		<path class="st0" d="M239.4,350.7c3.3,0,5.7,1.5,6.9,3.5v-3.2h6.9v22.4c0,6-3.5,11.1-11.2,11.1c-6.7,0-11-3.4-11.6-8.7h6.8
			c0.4,1.7,2.1,2.8,4.5,2.8c2.6,0,4.7-1.4,4.7-5.1v-3.2c-1.2,2-3.6,3.5-6.9,3.5c-5.5,0-9.9-4.5-9.9-11.6
			C229.5,355.2,233.8,350.7,239.4,350.7z M241.4,356.7c-2.6,0-4.9,1.9-4.9,5.5c0,3.6,2.3,5.6,4.9,5.6c2.6,0,4.9-2,4.9-5.5
			C246.3,358.7,244,356.7,241.4,356.7z"/>
		<path class="st0" d="M268.3,373.8c-6.6,0-11.6-4.4-11.6-11.5c0-7.1,5.1-11.5,11.6-11.5c6.6,0,11.6,4.4,11.6,11.5
			C280,369.4,274.9,373.8,268.3,373.8z M268.3,367.9c2.5,0,4.7-1.8,4.7-5.6c0-3.8-2.2-5.6-4.7-5.6c-2.5,0-4.7,1.8-4.7,5.6
			C263.7,366,265.8,367.9,268.3,367.9z"/>
		<path class="st0" d="M299.2,361.3c0-3.1-1.7-4.7-4.3-4.7c-2.6,0-4.3,1.7-4.3,4.7v12.2h-6.9v-22.4h6.9v3c1.4-1.9,3.8-3.2,6.8-3.2
			c5.2,0,8.6,3.5,8.6,9.6v13.1h-6.8V361.3z"/>
	</g>
</g>
</svg>
