<svg xmlns="http://www.w3.org/2000/svg" viewBox="0 0 1000.1 1645.1"><defs><style>.cls-1{fill:#2d2d2d;}</style></defs><title>Asset 4</title><g id="Layer_2" data-name="Layer 2"><g id="Logo"><g id="Hush"><g id="Text"><path class="cls-1" d="M160.51,1387.63h62.1v254.93h-62.1V1536.88H62.1v105.68H0V1387.63H62.1v102h98.41Z"/><path class="cls-1" d="M276,1539.79V1387.63h62.1v152.16q0,22.88,11.26,35.23t33,12.35q21.79,0,33.41-12.35t11.62-35.23V1387.63h62.1v152.16q0,33.77-15.8,58.29t-39.95,35.77a122.64,122.64,0,0,1-52.48,11.26q-44.31,0-74.81-27.6T276,1539.79Z"/><path class="cls-1" d="M629,1433q-11.63,0-19.07,6.17T602.46,1457q0,11.63,6.9,18.7a45,45,0,0,0,18,10.89q11.07,3.81,24.69,7.26a279.45,279.45,0,0,1,27.05,8.35,119,119,0,0,1,24.51,12.17q11.07,7.27,18,20.52t6.9,31.78q0,32.33-26.33,55.38t-69.36,23.06q-43,0-69.36-20.7t-26.33-58.83h66.09q2.54,30.5,31.23,30.5,13.43,0,21.06-7.08a23.47,23.47,0,0,0,7.63-18q0-10.89-6.9-17.79a48.11,48.11,0,0,0-18-10.89q-11.08-4-24.69-7.45a248.27,248.27,0,0,1-27.06-8.53A132,132,0,0,1,562,1514.18q-11.08-7.08-18-20.34t-6.9-31.41q0-35.58,26.51-57T631.33,1384q41.21,0,66.64,18.7t26.51,59H656.93q-1.46-13.8-8.9-21.24T629,1433Z"/><path class="cls-1" d="M938,1387.63h62.1v254.93H938V1536.88H839.59v105.68h-62.1V1387.63h62.1v102H938Z"/></g><g id="Icon"><path class="cls-1" d="M111,1020.17A54.68,54.68,0,0,1,56.5,1075h-2A54.68,54.68,0,0,1,0,1020.17V240.5a54.68,54.68,0,0,1,54.52-54.84h2A54.68,54.68,0,0,1,111,240.5Z"/><path class="cls-1" d="M1000.1,1020.17A54.68,54.68,0,0,1,945.59,1075h-2a54.68,54.68,0,0,1-54.51-54.84V240.5a54.68,54.68,0,0,1,54.51-54.84h2a54.68,54.68,0,0,1,54.52,54.84Z"/><path class="cls-1" d="M324,1133.81c0,30.24-24.93,54.75-55.69,54.75h0c-30.75,0-55.69-24.51-55.69-54.75V796.33c0-30.24,24.93-54.75,55.69-54.75h0c30.75,0,55.69,24.51,55.69,54.75Z"/><path class="cls-1" d="M324,578.14c0,30.34-24.86,54.94-55.52,54.94h0c-30.66,0-55.52-24.6-55.52-54.94V119.41c0-30.34,24.86-54.94,55.52-54.94h0c30.66,0,55.52,24.6,55.52,54.94Z"/><path class="cls-1" d="M772,1133.56c0,30.38-24.08,55-53.79,55H714.3c-29.71,0-53.79-24.62-53.79-55V632.49c0-30.38,24.08-55,53.79-55h3.91c29.71,0,53.79,24.62,53.79,55Z"/><path class="cls-1" d="M772,411.88c0,31.27-25,56.62-55.88,56.62h0c-30.86,0-55.88-25.35-55.88-56.62V121.28c0-31.27,25-56.62,55.88-56.62h0C747,64.66,772,90,772,121.28Z"/><path class="cls-1" d="M489.5,0a54.89,54.89,0,0,0-55,54.75V241.49s14.86-32.67,52.86-32.67c43.5,0,57.2,32.67,57.2,32.67V54.75A54.89,54.89,0,0,0,489.5,0Z"/><path class="cls-1" d="M489.19,1094.24c-39.31,0-55.69-32.5-55.69-32.5v190.19c0,30.24,24.93,54.75,55.69,54.75s55.69-24.51,55.69-54.75V1061.24S530.75,1094.24,489.19,1094.24Z"/><path class="cls-1" d="M489.5,322.48a54.89,54.89,0,0,0-55,54.75v144.6s33.69,40,57.19,66.33,25.83,27.5,33.67,27.5c8.83,0,19.2-3.17,19.2-20.17V377.23A54.89,54.89,0,0,0,489.5,322.48Z"/><path class="cls-1" d="M487,751.16c23.5,26.33,57.19,66.33,57.19,66.33v99.79a55,55,0,0,1-110.06,0V743.83c0-8.21-2.27-19,9.86-24s19.88,4.5,29.88,16.25S487,751.16,487,751.16Z"/></g></g></g></g></svg>